<?xml version="1.0" encoding="UTF-8"?>
<svg xmlns="http://www.w3.org/2000/svg" viewBox="0 0 314.026 43.64">
  <path fill="#111111" d="M0,27.33C0,17.34,6.02,11.01,15.49,11.01c8.45,0,13.89,5.12,13.89,13.18h-4.74c-.06-5.25-3.58-8.58-9.09-8.58-6.34,0-10.43,4.54-10.43,11.71s3.97,11.71,10.11,11.71c5.76,0,9.47-3.26,9.54-8.45h4.74c0,7.94-5.63,13.05-14.4,13.05-9.22,0-15.1-6.33-15.1-16.32Z"/>
  <path fill="#111111" d="M37.5,11.52h5.12l-.13,9.15h.06c1.47-5.5,4.74-9.66,11.52-9.66s10.88,4.74,10.88,12.35c0,2.18-.19,4.48-.32,5.63h-4.67c.13-.96.26-2.56.26-4.54,0-5.82-2.18-8.83-7.36-8.83-6.46,0-10.24,5.63-10.24,13.5v14.01h-5.12V11.52Z"/>
  <path fill="#111111" d="M71.36,27.39c0-9.98,6.21-16.38,16-16.38s16,6.4,16,16.38-6.21,16.25-16,16.25-16-6.33-16-16.25ZM98.24,27.39c0-7.17-4.22-11.78-10.88-11.78s-10.88,4.61-10.88,11.78,4.22,11.65,10.88,11.65,10.88-4.54,10.88-11.65Z"/>
  <path fill="#111111" d="M109.31,32.57h4.74c0,4.22,2.56,6.72,9.15,6.72s9.66-1.98,9.66-5.38c0-1.28-.38-2.5-1.98-3.26-1.47-.7-4.8-1.09-8.7-1.47-5.18-.45-8.32-1.09-10.24-2.5-1.73-1.28-2.62-3.58-2.62-5.89,0-5.95,5.44-9.79,13.89-9.79,9.47,0,13.44,4.16,13.44,11.26h-4.74c-.06-4.74-2.88-6.91-8.51-6.91s-8.96,1.98-8.96,5.12c0,1.28.19,2.82,2.05,3.58,1.54.64,4.67,1.02,8.83,1.47,4.93.51,7.36.96,9.54,2.18,2.11,1.22,3.13,3.65,3.13,6.02,0,6.21-5.12,9.92-14.72,9.92-10.62,0-13.95-4.99-13.95-11.07Z"/>
  <path fill="#111111" d="M144.38,32.57h4.74c0,4.22,2.56,6.72,9.15,6.72s9.66-1.98,9.66-5.38c0-1.28-.38-2.5-1.98-3.26-1.47-.7-4.8-1.09-8.7-1.47-5.18-.45-8.32-1.09-10.24-2.5-1.73-1.28-2.62-3.58-2.62-5.89,0-5.95,5.44-9.79,13.89-9.79,9.47,0,13.44,4.16,13.44,11.26h-4.74c-.06-4.74-2.88-6.91-8.51-6.91s-8.96,1.98-8.96,5.12c0,1.28.19,2.82,2.05,3.58,1.54.64,4.67,1.02,8.83,1.47,4.93.51,7.36.96,9.54,2.18,2.11,1.22,3.14,3.65,3.14,6.02,0,6.21-5.12,9.92-14.72,9.92-10.62,0-13.95-4.99-13.95-11.07Z"/>
  <path fill="#65716d" d="M188.31 43L203.16 43L207.51 24.59L207.64 24.59L211.80 43L227.64 43L236.02 10.40L224.54 10.40L220.05 30.99L219.92 30.99L215.30 10.40L203.02 10.40L198.21 30.99L198.07 30.99L193.78 10.40L179.92 10.40Z M271.13 25.51C271.13 15.02 264.86 9.87 254.49 9.87C243.08 9.87 236.01 15.81 236.01 27.03C236.01 36.80 241.76 43.53 254.36 43.53C265.25 43.53 270.99 38.78 271.13 31.05L259.97 31.05C259.77 33.83 257.93 35.01 254.96 35.01C251.39 35.01 249.48 33.23 249.15 28.55L271.13 28.55ZM259.97 23.20L249.35 23.20C249.94 19.31 251.72 17.85 254.96 17.85C258.12 17.85 259.97 19.37 259.97 22.34Z M297.38 43.53C305.96 43.53 311.57 37.52 311.57 26.04C311.57 15.61 306.29 9.87 297.45 9.87C291.84 9.87 288.01 12.24 286.69 16.20L286.56 16.20C286.63 14.62 286.76 11.91 286.76 10.20L286.76-2.74L273.69-2.74L273.69 43L286.76 43C286.63 41.35 286.49 38.64 286.43 36.73L286.49 36.73C287.75 40.76 291.38 43.53 297.38 43.53ZM293.03 34.22C289.20 34.22 286.89 32.04 286.76 28.08L286.76 26.37C286.76 21.68 289.13 19.17 293.03 19.17C296.59 19.17 298.51 21.81 298.51 26.43C298.51 31.58 296.46 34.22 293.03 34.22Z"/>
</svg>