<?xml version="1.0" encoding="UTF-8"?>
<svg xmlns="http://www.w3.org/2000/svg" viewBox="0 0 198.02600000000004 56.25">
  <rect fill="#65716d" x="0" width="56.25" height="56.25"/>
  <polygon fill="#ffffff" points="44.15 36.09 36.15 28.09 44.04 20.19 36.05 12.2 28.15 20.09 20.17 12.11 12.18 20.1 20.16 28.09 12.07 36.17 20.07 44.17 28.15 36.08 36.15 44.08 44.15 36.09"/>
  <path fill="#ffffff" d="M72.31 50L87.16 50L91.51 31.59L91.64 31.59L95.80 50L111.64 50L120.02 17.40L108.54 17.40L104.05 37.99L103.92 37.99L99.30 17.40L87.02 17.40L82.21 37.99L82.07 37.99L77.78 17.40L63.92 17.40Z M155.13 32.51C155.13 22.02 148.86 16.87 138.49 16.87C127.08 16.87 120.01 22.81 120.01 34.03C120.01 43.80 125.76 50.53 138.36 50.53C149.25 50.53 154.99 45.78 155.13 38.05L143.97 38.05C143.77 40.83 141.93 42.01 138.96 42.01C135.39 42.01 133.48 40.23 133.15 35.55L155.13 35.55ZM143.97 30.20L133.35 30.20C133.94 26.31 135.72 24.85 138.96 24.85C142.12 24.85 143.97 26.37 143.97 29.34Z M181.38 50.53C189.96 50.53 195.57 44.52 195.57 33.04C195.57 22.61 190.29 16.87 181.45 16.87C175.84 16.87 172.01 19.24 170.69 23.20L170.56 23.20C170.63 21.62 170.76 18.91 170.76 17.20L170.76 4.26L157.69 4.26L157.69 50L170.76 50C170.63 48.35 170.49 45.64 170.43 43.73L170.49 43.73C171.75 47.76 175.38 50.53 181.38 50.53ZM177.03 41.22C173.20 41.22 170.89 39.04 170.76 35.08L170.76 33.37C170.76 28.68 173.13 26.17 177.03 26.17C180.59 26.17 182.51 28.81 182.51 33.43C182.51 38.58 180.46 41.22 177.03 41.22Z"/>
</svg>